<?xml version="1.0" encoding="UTF-8" standalone="no"?>
<!DOCTYPE svg PUBLIC "-//W3C//DTD SVG 1.1//EN"
 "http://www.w3.org/Graphics/SVG/1.1/DTD/svg11.dtd">
<!-- Generated by graphviz version 2.43.0 (0)
 -->
<!-- Title: %3 Pages: 1 -->
<svg width="378pt" height="260pt"
 viewBox="0.00 0.00 378.00 260.00" xmlns="http://www.w3.org/2000/svg" xmlns:xlink="http://www.w3.org/1999/xlink">
<g id="graph0" class="graph" transform="scale(1 1) rotate(0) translate(4 256)">
<title>%3</title>
<polygon fill="white" stroke="transparent" points="-4,4 -4,-256 374,-256 374,4 -4,4"/>
<!-- D0 -->
<g id="node1" class="node">
<title>D0</title>
<path fill="none" stroke="black" d="M201,-252C201,-252 169,-252 169,-252 163,-252 157,-246 157,-240 157,-240 157,-228 157,-228 157,-222 163,-216 169,-216 169,-216 201,-216 201,-216 207,-216 213,-222 213,-228 213,-228 213,-240 213,-240 213,-246 207,-252 201,-252"/>
<text text-anchor="middle" x="185" y="-230.3" font-family="Times,serif" font-size="14.00">begin</text>
</g>
<!-- D4 -->
<g id="node3" class="node">
<title>D4</title>
<polygon fill="none" stroke="black" points="370,-180 0,-180 0,-144 370,-144 370,-180"/>
<text text-anchor="middle" x="185" y="-158.3" font-family="Times,serif" font-size="14.00">std::cout &lt;&lt; &quot;Function A is called.&quot; &lt;&lt; std::endl;</text>
</g>
<!-- D0&#45;&gt;D4 -->
<g id="edge3" class="edge">
<title>D0&#45;&gt;D4</title>
<path fill="none" stroke="black" d="M185,-215.7C185,-207.98 185,-198.71 185,-190.11"/>
<polygon fill="black" stroke="black" points="188.5,-190.1 185,-180.1 181.5,-190.1 188.5,-190.1"/>
</g>
<!-- D1 -->
<g id="node2" class="node">
<title>D1</title>
<path fill="none" stroke="black" d="M200,-36C200,-36 170,-36 170,-36 164,-36 158,-30 158,-24 158,-24 158,-12 158,-12 158,-6 164,0 170,0 170,0 200,0 200,0 206,0 212,-6 212,-12 212,-12 212,-24 212,-24 212,-30 206,-36 200,-36"/>
<text text-anchor="middle" x="185" y="-14.3" font-family="Times,serif" font-size="14.00">end</text>
</g>
<!-- D6 -->
<g id="node4" class="node">
<title>D6</title>
<polygon fill="none" stroke="black" points="235.5,-108 134.5,-108 134.5,-72 235.5,-72 235.5,-108"/>
<text text-anchor="middle" x="185" y="-86.3" font-family="Times,serif" font-size="14.00">functionC();</text>
</g>
<!-- D4&#45;&gt;D6 -->
<g id="edge1" class="edge">
<title>D4&#45;&gt;D6</title>
<path fill="none" stroke="black" d="M185,-143.7C185,-135.98 185,-126.71 185,-118.11"/>
<polygon fill="black" stroke="black" points="188.5,-118.1 185,-108.1 181.5,-118.1 188.5,-118.1"/>
</g>
<!-- D6&#45;&gt;D1 -->
<g id="edge2" class="edge">
<title>D6&#45;&gt;D1</title>
<path fill="none" stroke="black" d="M185,-71.7C185,-63.98 185,-54.71 185,-46.11"/>
<polygon fill="black" stroke="black" points="188.5,-46.1 185,-36.1 181.5,-46.1 188.5,-46.1"/>
</g>
</g>
</svg>
