<?xml version="1.0" encoding="UTF-8" standalone="no"?>
<!DOCTYPE svg PUBLIC "-//W3C//DTD SVG 1.1//EN"
 "http://www.w3.org/Graphics/SVG/1.1/DTD/svg11.dtd">
<!-- Generated by graphviz version 2.43.0 (0)
 -->
<!-- Title: %3 Pages: 1 -->
<svg width="379pt" height="188pt"
 viewBox="0.00 0.00 379.00 188.00" xmlns="http://www.w3.org/2000/svg" xmlns:xlink="http://www.w3.org/1999/xlink">
<g id="graph0" class="graph" transform="scale(1 1) rotate(0) translate(4 184)">
<title>%3</title>
<polygon fill="white" stroke="transparent" points="-4,4 -4,-184 375,-184 375,4 -4,4"/>
<!-- D0 -->
<g id="node1" class="node">
<title>D0</title>
<path fill="none" stroke="black" d="M201.5,-180C201.5,-180 169.5,-180 169.5,-180 163.5,-180 157.5,-174 157.5,-168 157.5,-168 157.5,-156 157.5,-156 157.5,-150 163.5,-144 169.5,-144 169.5,-144 201.5,-144 201.5,-144 207.5,-144 213.5,-150 213.5,-156 213.5,-156 213.5,-168 213.5,-168 213.5,-174 207.5,-180 201.5,-180"/>
<text text-anchor="middle" x="185.5" y="-158.3" font-family="Times,serif" font-size="14.00">begin</text>
</g>
<!-- D4 -->
<g id="node3" class="node">
<title>D4</title>
<polygon fill="none" stroke="black" points="371,-108 0,-108 0,-72 371,-72 371,-108"/>
<text text-anchor="middle" x="185.5" y="-86.3" font-family="Times,serif" font-size="14.00">std::cout &lt;&lt; &quot;Function C is called.&quot; &lt;&lt; std::endl;</text>
</g>
<!-- D0&#45;&gt;D4 -->
<g id="edge2" class="edge">
<title>D0&#45;&gt;D4</title>
<path fill="none" stroke="black" d="M185.5,-143.7C185.5,-135.98 185.5,-126.71 185.5,-118.11"/>
<polygon fill="black" stroke="black" points="189,-118.1 185.5,-108.1 182,-118.1 189,-118.1"/>
</g>
<!-- D1 -->
<g id="node2" class="node">
<title>D1</title>
<path fill="none" stroke="black" d="M200.5,-36C200.5,-36 170.5,-36 170.5,-36 164.5,-36 158.5,-30 158.5,-24 158.5,-24 158.5,-12 158.5,-12 158.5,-6 164.5,0 170.5,0 170.5,0 200.5,0 200.5,0 206.5,0 212.5,-6 212.5,-12 212.5,-12 212.5,-24 212.5,-24 212.5,-30 206.5,-36 200.5,-36"/>
<text text-anchor="middle" x="185.5" y="-14.3" font-family="Times,serif" font-size="14.00">end</text>
</g>
<!-- D4&#45;&gt;D1 -->
<g id="edge1" class="edge">
<title>D4&#45;&gt;D1</title>
<path fill="none" stroke="black" d="M185.5,-71.7C185.5,-63.98 185.5,-54.71 185.5,-46.11"/>
<polygon fill="black" stroke="black" points="189,-46.1 185.5,-36.1 182,-46.1 189,-46.1"/>
</g>
</g>
</svg>
