<?xml version="1.0" encoding="UTF-8" standalone="no"?>
<!DOCTYPE svg PUBLIC "-//W3C//DTD SVG 1.1//EN"
 "http://www.w3.org/Graphics/SVG/1.1/DTD/svg11.dtd">
<!-- Generated by graphviz version 2.43.0 (0)
 -->
<!-- Title: %3 Pages: 1 -->
<svg width="346pt" height="476pt"
 viewBox="0.00 0.00 346.00 476.00" xmlns="http://www.w3.org/2000/svg" xmlns:xlink="http://www.w3.org/1999/xlink">
<g id="graph0" class="graph" transform="scale(1 1) rotate(0) translate(4 472)">
<title>%3</title>
<polygon fill="white" stroke="transparent" points="-4,4 -4,-472 342,-472 342,4 -4,4"/>
<!-- D0 -->
<g id="node1" class="node">
<title>D0</title>
<path fill="none" stroke="black" d="M185,-468C185,-468 153,-468 153,-468 147,-468 141,-462 141,-456 141,-456 141,-444 141,-444 141,-438 147,-432 153,-432 153,-432 185,-432 185,-432 191,-432 197,-438 197,-444 197,-444 197,-456 197,-456 197,-462 191,-468 185,-468"/>
<text text-anchor="middle" x="169" y="-446.3" font-family="Times,serif" font-size="14.00">begin</text>
</g>
<!-- D4 -->
<g id="node3" class="node">
<title>D4</title>
<polygon fill="none" stroke="black" points="338,-396 0,-396 0,-360 338,-360 338,-396"/>
<text text-anchor="middle" x="169" y="-374.3" font-family="Times,serif" font-size="14.00">std::cout &lt;&lt; &quot;Program starts.&quot; &lt;&lt; std::endl;</text>
</g>
<!-- D0&#45;&gt;D4 -->
<g id="edge6" class="edge">
<title>D0&#45;&gt;D4</title>
<path fill="none" stroke="black" d="M169,-431.7C169,-423.98 169,-414.71 169,-406.11"/>
<polygon fill="black" stroke="black" points="172.5,-406.1 169,-396.1 165.5,-406.1 172.5,-406.1"/>
</g>
<!-- D1 -->
<g id="node2" class="node">
<title>D1</title>
<path fill="none" stroke="black" d="M184,-36C184,-36 154,-36 154,-36 148,-36 142,-30 142,-24 142,-24 142,-12 142,-12 142,-6 148,0 154,0 154,0 184,0 184,0 190,0 196,-6 196,-12 196,-12 196,-24 196,-24 196,-30 190,-36 184,-36"/>
<text text-anchor="middle" x="169" y="-14.3" font-family="Times,serif" font-size="14.00">end</text>
</g>
<!-- D6 -->
<g id="node4" class="node">
<title>D6</title>
<polygon fill="none" stroke="black" points="219,-324 119,-324 119,-288 219,-288 219,-324"/>
<text text-anchor="middle" x="169" y="-302.3" font-family="Times,serif" font-size="14.00">functionA();</text>
</g>
<!-- D4&#45;&gt;D6 -->
<g id="edge1" class="edge">
<title>D4&#45;&gt;D6</title>
<path fill="none" stroke="black" d="M169,-359.7C169,-351.98 169,-342.71 169,-334.11"/>
<polygon fill="black" stroke="black" points="172.5,-334.1 169,-324.1 165.5,-334.1 172.5,-334.1"/>
</g>
<!-- D8 -->
<g id="node5" class="node">
<title>D8</title>
<polygon fill="none" stroke="black" points="219.5,-252 118.5,-252 118.5,-216 219.5,-216 219.5,-252"/>
<text text-anchor="middle" x="169" y="-230.3" font-family="Times,serif" font-size="14.00">functionB();</text>
</g>
<!-- D6&#45;&gt;D8 -->
<g id="edge2" class="edge">
<title>D6&#45;&gt;D8</title>
<path fill="none" stroke="black" d="M169,-287.7C169,-279.98 169,-270.71 169,-262.11"/>
<polygon fill="black" stroke="black" points="172.5,-262.1 169,-252.1 165.5,-262.1 172.5,-262.1"/>
</g>
<!-- D10 -->
<g id="node6" class="node">
<title>D10</title>
<polygon fill="none" stroke="black" points="334,-180 4,-180 4,-144 334,-144 334,-180"/>
<text text-anchor="middle" x="169" y="-158.3" font-family="Times,serif" font-size="14.00">std::cout &lt;&lt; &quot;Program ends.&quot; &lt;&lt; std::endl;</text>
</g>
<!-- D8&#45;&gt;D10 -->
<g id="edge3" class="edge">
<title>D8&#45;&gt;D10</title>
<path fill="none" stroke="black" d="M169,-215.7C169,-207.98 169,-198.71 169,-190.11"/>
<polygon fill="black" stroke="black" points="172.5,-190.1 169,-180.1 165.5,-190.1 172.5,-190.1"/>
</g>
<!-- D12 -->
<g id="node7" class="node">
<title>D12</title>
<polygon fill="none" stroke="black" points="209,-108 129,-108 129,-72 209,-72 209,-108"/>
<text text-anchor="middle" x="169" y="-86.3" font-family="Times,serif" font-size="14.00">return 0;</text>
</g>
<!-- D10&#45;&gt;D12 -->
<g id="edge4" class="edge">
<title>D10&#45;&gt;D12</title>
<path fill="none" stroke="black" d="M169,-143.7C169,-135.98 169,-126.71 169,-118.11"/>
<polygon fill="black" stroke="black" points="172.5,-118.1 169,-108.1 165.5,-118.1 172.5,-118.1"/>
</g>
<!-- D12&#45;&gt;D1 -->
<g id="edge5" class="edge">
<title>D12&#45;&gt;D1</title>
<path fill="none" stroke="black" d="M169,-71.7C169,-63.98 169,-54.71 169,-46.11"/>
<polygon fill="black" stroke="black" points="172.5,-46.1 169,-36.1 165.5,-46.1 172.5,-46.1"/>
</g>
</g>
</svg>
